HIERARCHY
ROOT Hips
{
	OFFSET -14.64140 90.27770 -84.91600
	CHANNELS 6 Xposition Yposition Zposition Zrotation Xrotation Yrotation
	JOINT Spine
	{
		OFFSET 0.00000 13.20850 -1.60436
		CHANNELS 3 Zrotation Xrotation Yrotation
		JOINT Spine1
		{
			OFFSET 0.00000 8.61716 0.00000
			CHANNELS 3 Zrotation Xrotation Yrotation
			JOINT Spine2
			{
				OFFSET 0.00000 8.61717 0.00000
				CHANNELS 3 Zrotation Xrotation Yrotation
				JOINT Spine3
				{
					OFFSET 0.00000 8.61717 0.00000
					CHANNELS 3 Zrotation Xrotation Yrotation
					JOINT Neck
					{
						OFFSET 0.00000 11.07920 1.10792
						CHANNELS 3 Zrotation Xrotation Yrotation
						JOINT Neck1
						{
							OFFSET 0.00000 7.08032 0.00000
							CHANNELS 3 Zrotation Xrotation Yrotation
							JOINT Head
							{
								OFFSET 0.00000 7.08031 0.00000
								CHANNELS 3 Zrotation Xrotation Yrotation
								End site
								{
									OFFSET 0.00000 0.00000 0.00000
								}
							}
						}
					}
					JOINT RightShoulder
					{
						OFFSET -0.01000 7.91373 5.19711
						CHANNELS 3 Zrotation Xrotation Yrotation
						JOINT RightArm
						{
							OFFSET -18.41580 0.00000 0.00000
							CHANNELS 3 Zrotation Xrotation Yrotation
							JOINT RightForeArm
							{
								OFFSET -29.11090 0.00000 0.00000
								CHANNELS 3 Zrotation Xrotation Yrotation
								JOINT RightHand
								{
									OFFSET -24.65040 0.00000 0.00000
									CHANNELS 3 Zrotation Xrotation Yrotation
									JOINT RightHandThumb1
									{
										OFFSET -5.35114 -0.85590 3.97906
										CHANNELS 3 Zrotation Xrotation Yrotation
										JOINT RightHandThumb2
										{
											OFFSET -4.52789 0.00000 0.00000
											CHANNELS 3 Zrotation Xrotation Yrotation
											JOINT RightHandThumb3
											{
												OFFSET -2.46976 0.00000 0.00000
												CHANNELS 3 Zrotation Xrotation Yrotation
												End site
												{
													OFFSET 0.00000 0.00000 0.00000
												}
											}
										}
									}
									JOINT RightHandIndex1
									{
										OFFSET -14.26970 0.00000 2.88139
										CHANNELS 3 Zrotation Xrotation Yrotation
										JOINT RightHandIndex2
										{
											OFFSET -5.48836 0.00000 0.00000
											CHANNELS 3 Zrotation Xrotation Yrotation
											JOINT RightHandIndex3
											{
												OFFSET -3.01859 0.00000 0.00000
												CHANNELS 3 Zrotation Xrotation Yrotation
												End site
												{
													OFFSET 0.00000 0.00000 0.00000
												}
											}
										}
									}
									JOINT RightHandMiddle1
									{
										OFFSET -14.26970 0.00000 -0.09147
										CHANNELS 3 Zrotation Xrotation Yrotation
										JOINT RightHandMiddle2
										{
											OFFSET -6.17441 0.00000 0.00000
											CHANNELS 3 Zrotation Xrotation Yrotation
											JOINT RightHandMiddle3
											{
												OFFSET -3.56743 0.00000 0.00000
												CHANNELS 3 Zrotation Xrotation Yrotation
												End site
												{
													OFFSET 0.00000 0.00000 0.00000
												}
											}
										}
									}
									JOINT RightHandRing1
									{
										OFFSET -12.69180 0.00000 -3.06433
										CHANNELS 3 Zrotation Xrotation Yrotation
										JOINT RightHandRing2
										{
											OFFSET -5.62556 0.00000 0.00000
											CHANNELS 3 Zrotation Xrotation Yrotation
											JOINT RightHandRing3
											{
												OFFSET -3.56744 0.00000 0.00000
												CHANNELS 3 Zrotation Xrotation Yrotation
												End site
												{
													OFFSET 0.00000 0.00000 0.00000
												}
											}
										}
									}
									JOINT RightHandPinky1
									{
										OFFSET -11.11390 0.00000 -6.03719
										CHANNELS 3 Zrotation Xrotation Yrotation
										JOINT RightHandPinky2
										{
											OFFSET -4.52789 0.00000 0.00000
											CHANNELS 3 Zrotation Xrotation Yrotation
											JOINT RightHandPinky3
											{
												OFFSET -2.46976 0.00000 0.00000
												CHANNELS 3 Zrotation Xrotation Yrotation
												End site
												{
													OFFSET 0.00000 0.00000 0.00000
												}
											}
										}
									}
								}
							}
						}
					}
					JOINT LeftShoulder
					{
						OFFSET 0.01000 7.91373 5.19711
						CHANNELS 3 Zrotation Xrotation Yrotation
						JOINT LeftArm
						{
							OFFSET 18.41580 0.00000 0.00000
							CHANNELS 3 Zrotation Xrotation Yrotation
							JOINT LeftForeArm
							{
								OFFSET 29.11090 0.00000 0.00000
								CHANNELS 3 Zrotation Xrotation Yrotation
								JOINT LeftHand
								{
									OFFSET 24.65040 0.00000 0.00000
									CHANNELS 3 Zrotation Xrotation Yrotation
									JOINT LeftHandThumb1
									{
										OFFSET 5.35114 -0.85590 3.97906
										CHANNELS 3 Zrotation Xrotation Yrotation
										JOINT LeftHandThumb2
										{
											OFFSET 4.52789 0.00000 0.00000
											CHANNELS 3 Zrotation Xrotation Yrotation
											JOINT LeftHandThumb3
											{
												OFFSET 2.46977 0.00000 0.00000
												CHANNELS 3 Zrotation Xrotation Yrotation
												End site
												{
													OFFSET 0.00000 0.00000 0.00000
												}
											}
										}
									}
									JOINT LeftHandIndex1
									{
										OFFSET 14.26970 0.00000 2.88139
										CHANNELS 3 Zrotation Xrotation Yrotation
										JOINT LeftHandIndex2
										{
											OFFSET 5.48836 0.00000 0.00000
											CHANNELS 3 Zrotation Xrotation Yrotation
											JOINT LeftHandIndex3
											{
												OFFSET 3.01859 0.00000 0.00000
												CHANNELS 3 Zrotation Xrotation Yrotation
												End site
												{
													OFFSET 0.00000 0.00000 0.00000
												}
											}
										}
									}
									JOINT LeftHandMiddle1
									{
										OFFSET 14.26970 0.00000 -0.09147
										CHANNELS 3 Zrotation Xrotation Yrotation
										JOINT LeftHandMiddle2
										{
											OFFSET 6.17440 0.00000 0.00000
											CHANNELS 3 Zrotation Xrotation Yrotation
											JOINT LeftHandMiddle3
											{
												OFFSET 3.56744 0.00000 0.00000
												CHANNELS 3 Zrotation Xrotation Yrotation
												End site
												{
													OFFSET 0.00000 0.00000 0.00000
												}
											}
										}
									}
									JOINT LeftHandRing1
									{
										OFFSET 12.69180 0.00000 -3.06433
										CHANNELS 3 Zrotation Xrotation Yrotation
										JOINT LeftHandRing2
										{
											OFFSET 5.62556 0.00000 0.00000
											CHANNELS 3 Zrotation Xrotation Yrotation
											JOINT LeftHandRing3
											{
												OFFSET 3.56744 0.00000 0.00000
												CHANNELS 3 Zrotation Xrotation Yrotation
												End site
												{
													OFFSET 0.00000 0.00000 0.00000
												}
											}
										}
									}
									JOINT LeftHandPinky1
									{
										OFFSET 11.11390 0.00000 -6.03719
										CHANNELS 3 Zrotation Xrotation Yrotation
										JOINT LeftHandPinky2
										{
											OFFSET 4.52789 0.00000 0.00000
											CHANNELS 3 Zrotation Xrotation Yrotation
											JOINT LeftHandPinky3
											{
												OFFSET 2.46976 0.00000 0.00000
												CHANNELS 3 Zrotation Xrotation Yrotation
												End site
												{
													OFFSET 0.00000 0.00000 0.00000
												}
											}
										}
									}
								}
							}
						}
					}
					JOINT pCube4
					{
						OFFSET 0.00000 10.91090 1.10792
						CHANNELS 3 Zrotation Xrotation Yrotation
						End site
						{
							OFFSET 0.00000 0.00000 0.00000
						}
					}
				}
			}
		}
	}
	JOINT RightUpLeg
	{
		OFFSET -9.98441 0.00000 0.00000
		CHANNELS 3 Zrotation Xrotation Yrotation
		JOINT RightLeg
		{
			OFFSET 0.00000 -42.11790 0.00000
			CHANNELS 3 Zrotation Xrotation Yrotation
			JOINT RightFoot
			{
				OFFSET 0.00000 -45.00020 -0.00001
				CHANNELS 3 Zrotation Xrotation Yrotation
				JOINT RightForeFoot
				{
					OFFSET 0.00000 -3.74820 0.00000
					CHANNELS 3 Zrotation Xrotation Yrotation
					JOINT RightToeBase
					{
						OFFSET 0.00000 0.06325 14.43120
						CHANNELS 3 Zrotation Xrotation Yrotation
						End site
						{
							OFFSET 0.00000 0.00000 0.00000
						}
					}
				}
			}
		}
	}
	JOINT LeftUpLeg
	{
		OFFSET 9.98441 0.00000 0.00000
		CHANNELS 3 Zrotation Xrotation Yrotation
		JOINT LeftLeg
		{
			OFFSET 0.00000 -42.11800 0.00000
			CHANNELS 3 Zrotation Xrotation Yrotation
			JOINT LeftFoot
			{
				OFFSET 0.00000 -45.00070 0.00000
				CHANNELS 3 Zrotation Xrotation Yrotation
				JOINT LeftForeFoot
				{
					OFFSET 0.00000 -3.74824 0.00000
					CHANNELS 3 Zrotation Xrotation Yrotation
					JOINT LeftToeBase
					{
						OFFSET 0.00000 0.06325 14.43110
						CHANNELS 3 Zrotation Xrotation Yrotation
						End site
						{
							OFFSET 0.00000 0.00000 0.00000
						}
					}
				}
			}
		}
	}
}
MOTION
Frames: 4
Frame Time: 0.050000
0.04865103581145721 0.04319028507568545 -0.03543075126159658 0.02354193962426046 -0.04127683196413053 -0.024125771823931517 -4.143020257686629 2.6099487082789494 -0.6803001065337233 -0.8761463739159355 3.627150876308572 0.3718556599823648 -1.1956087543840315 -1.3495982560116424 -0.8996595331685121 -0.21012316956988744 0.23781212163781637 -0.8045660089735102 -0.07776368882768485 10.699019105065826 -0.7652104470471568 -0.12977065014504105 -1.5502710526669714 -4.177778311404297 0.30801586046700463 -17.395213917261373 -0.3044174906275078 -2.2128998375161655 1.2645772902301013 -13.11575958070389 72.56830641748178 10.412489071368029 10.986883081097584 34.55107149630815 6.017075623765957 95.36303392289761 18.699192642810033 -0.27351193698405873 -3.6298069922728478 4.545966780692951 -0.13422019469451948 -1.6215794821848966 0.01252243117564228 -0.016300267023155714 -56.237886720020626 -0.04158326282360383 0.04560366296142184 -56.20588733291163 -38.76077740920883 -0.013761347152768836 -0.006344080763281502 -0.01081313446498451 0.024573801715660048 0.007107688144877899 -0.016330013211956675 0.0016444526206509996 0.015480223108829076 -36.73792628807959 -0.03541084655220374 -0.013047938210635721 -0.03614033665343925 0.01833624743814846 0.03200236012841145 0.030232769320756275 0.017218711247509077 -0.010807157701114024 -19.727719565485376 0.004429713076594356 -0.0008510499933254631 0.035781317904193456 0.019180229463185046 -0.02404612569295095 -0.003914130924029566 0.011804702770040079 0.01058768868026779 24.049015844926107 -0.039569384585965886 0.019016277906114494 28.85283887702217 0.045020923821970975 -0.011067727091431459 28.85717377575593 0.030553495736929698 0.014668414365410642 3.245337441712771 1.0685166303644074 11.640062848821438 -69.1054659543875 24.765942187392344 -9.436068860953963 -21.261692592525705 4.665409360474376 -75.69778994684353 -14.315408175485691 0.4142803623312764 1.364082680484371 -0.4295678375319414 0.09493092101834746 -8.145245406443202 -0.007740391775752202 -0.03867463571056863 44.55770679263586 -0.020340425498583843 -0.04363318978766949 44.52145800903054 12.44808002731559 0.007017954198533253 -0.016251131676454273 -0.022043294438029208 -0.04223365528653512 0.007957676278668288 -0.00151040073685105 0.01933749433895007 0.0031906414316426645 11.099914434760231 0.012340225186875957 0.01671477668047555 0.01821092463997552 -0.040736857552440095 0.011154853849082014 0.04998975579133229 0.04407149850788284 0.04601235189695909 4.7975816769751205 -0.02134284988527261 0.02340696110170239 -0.006887774498347135 0.0015486152328044718 0.03710945993652497 -0.04192286955598633 -0.047617254102423276 0.03624343914331589 -5.554453006114821 -0.012534133024774017 0.01413976857767841 -6.7475862512304685 0.018187279770583036 0.036411092484586 -6.697614327907942 -0.004032815528828477 -0.008516431284226546 -0.03165791310977118 -0.021227733582617814 -0.017141085178906043 7.999799381192859 3.4976139452708885 -19.182019781085806 0.041478304236517674 10.432973330604987 0.058896548748874275 -5.648336493612125 -15.614306526575586 3.214178839618385 0.027355251673448905 -0.023539390893809426 0.045191992598215235 0.04463998970516577 4.657181097462026 -0.009839727326740984 12.4758316874253 -8.222145966897758 6.873313191152427 -0.0262682476686266 46.341426131070676 -0.01692248316457855 -4.367665457433121 -14.796590066488745 -3.819901417318664 0.039890713591044465 0.0440296083160204 0.047186858682195826 -0.001160225133888642 -10.726210455790019 0.04625533526630958 
0.044269222352823254 0.03659101111104438 -0.036596671069420335 0.041082084631200715 0.00785588596458004 0.0005432606184162108 -4.206702377741375 2.6152993725957043 -0.6743869263421731 -0.9126079753228945 3.584869305091588 0.3806086133037322 -1.2251619161109881 -1.407834660194086 -0.982587649122618 -0.19126338549713556 0.18905606459933522 -0.8759706110069593 -0.008114233173310878 10.64651665493892 -0.8029740257993548 -0.0405963553960567 -1.5330256937931654 -4.432751992588866 0.3690896810866382 -17.221940838595554 -0.3776465186746222 -2.0615150002108216 1.2527831592664591 -12.959721596652246 72.34700899057081 9.914609916581382 10.938029750746042 36.170701548644224 6.0868010409888385 95.7067295678672 18.960191958438855 -0.26320541472183057 -3.9788912944091748 4.554050472005909 -0.09342273668631262 -1.5749135854132645 0.043202166017321776 -0.03436601626255594 -56.200006135183564 -0.048751154481493496 -0.015683022181374767 -56.197852870471635 -38.75374343348596 -0.03187741681680321 -0.007612010449035287 0.0373600119738234 0.04975123901433437 -0.012304860305885004 -0.022374247346603423 -0.035307386294598134 -0.015015043009472104 -36.68121860622749 0.04896606345785327 0.04183900514196991 -0.018818127654684873 -0.0015947720199309086 -0.019870909200807727 0.025624183106527077 0.009236608703417441 -0.046054419090252825 -19.736481798104062 -0.014564309911124252 0.021870228832395606 0.03504610581431115 -0.0418783158341132 -0.0006892631351858598 -0.024354342567377594 -0.029210156471488547 0.02267953741756048 24.04579981989691 0.031060891426227265 -0.0019377114911319517 28.882406051256723 -0.030882310241644458 -0.006553877012083536 28.896261318336837 0.04639797325045299 -0.04410975356103784 2.9897492390890434 0.9486036575769152 11.469637126311447 -69.15448613251974 24.949980266035805 -8.980598345768433 -20.83205904163567 4.281580925259304 -74.14990392114215 -13.997942560453241 0.3778789647142152 1.486453197230792 -0.4447387872961906 0.03926613949684969 -8.129166384718706 0.017232721310062753 0.023536316086550928 44.54943737286597 -0.030151795219743205 0.043479709681631826 44.59082593669894 12.477914881062487 0.02815498983079163 0.015202599537101366 -0.013368075961281327 -0.044196869501692215 -0.018164886288673455 -0.004671357933228585 0.046644080274669486 -0.026187777337197692 11.126747745545487 -0.0040654030860937185 0.01446599855110834 0.00586851540166462 -0.013844051961846808 -0.001357770330204084 -0.002546735059836614 0.033597827625412566 0.0212835983980849 4.741492212193871 -0.013371337676049859 0.04321140400765417 -0.010895301178641346 0.02838186417960566 0.04269362504085791 -0.022420701928842712 -0.014263658447929208 -0.020554704607823812 -5.6086404668401695 0.04086737747361356 0.01958421916677308 -6.691916594016488 0.002687905064157859 -0.012583919065003104 -6.711647919782946 0.013396684504537893 -0.03420208305037387 0.024706094883661874 0.03585025663354577 0.01569316670384704 8.00102635607423 3.4997440942513465 -19.237226428664485 0.027581189436339967 10.407364002559929 0.006548573109742517 -5.630005468457141 -15.708470809003078 3.208488088553831 -0.01716293342281608 0.009079915180444225 -0.0151057843854693 0.040268609741855366 4.730897428360727 0.04687202475349922 12.473305384402774 -8.227558269904511 6.870661108024786 0.047984847459866246 46.33517790392108 -0.019950031982173863 -4.3320343997975925 -14.779877439881655 -3.8382765192881183 -0.028835019050345634 0.009797207199264893 0.01811526319804036 0.02188032422174582 -10.702257662852539 -0.00363341173845904 
0.014041529116931451 -0.0007083221956850818 -0.024696455874451254 0.007729650364688121 -0.00825963137495423 0.02380033594133409 -4.207470416449419 2.55075321153614 -0.7085925788296268 -0.9139805899064206 3.5406074040641493 0.4008295597266984 -1.2208141269995685 -1.4045183177786646 -1.0334036864411404 -0.16396262441487494 0.2514774973350279 -0.8887355839618 0.1105562106888483 10.653455718645871 -0.8593445964036439 -0.05219195149495521 -1.4085004774536087 -4.550203984273012 0.32394583868835364 -16.99451944473637 -0.4008258839814337 -2.0704405018397156 1.2715917393209721 -12.886155199766876 72.22561685973587 9.585314626017631 10.948560449207854 37.73933561240487 6.098373578325813 95.92456962226731 18.949631571569228 -0.2746052306630932 -4.126845219574917 4.514578306047271 -0.1338670516984931 -1.577126276188645 0.03328170253663068 0.001973695320364989 -56.20266416925566 -0.027094896928724226 -0.015716658111979597 -56.20402560059362 -38.72523409682631 -0.03127155245346034 -0.037080464205669794 -0.019218393571516244 0.024655961401865822 -0.049629570157393825 0.01131495483994181 -0.0297956618385712 0.0429090609530383 -36.6916957724276 0.02436793590418748 0.019528869021702932 0.017961978316060903 0.036980077135970714 -0.03494851926782206 0.00464353083954367 0.002787362187823131 -0.03276673246114024 -19.795027118941654 -0.01369749084235057 -0.008886186639586117 0.039285204589998936 0.01880901952777049 0.026322050899580764 -0.015781163440961546 0.02941905782275874 -0.029704660513228287 24.004421101193735 0.0033901803821914907 0.008812036166202365 28.878545870581867 0.017426041312894214 -0.049036410786504656 28.857545139790286 -0.025380444396730453 0.04060281002409715 2.874887893918944 0.9638657170545649 11.363671990756222 -69.14084108572251 25.151472488470986 -8.632076057084578 -20.711567224188425 4.224228734382573 -73.42911520859198 -13.729440820720216 0.29456659934686713 1.6429588904466723 -0.4832891895053064 0.02086848490260291 -8.129568755841728 0.019937854618894007 0.013802358182896081 44.56454345018564 -0.00725616557587499 0.017672239944597438 44.51753021565688 12.477648251325716 -0.006913833855106735 -0.023844210321686352 0.03511574999741787 -0.009685541546361108 -0.029873263294717116 -0.0033386066862007126 -0.0033342546236763086 0.015302439770202708 11.148852888818226 0.019062801645853795 -0.03789502783217439 0.0044382930123577635 0.001949652122114537 0.0014203869774900289 0.030684507296474525 0.029805384092619253 0.04478162800215046 4.7972440029024055 0.020843136958380536 -0.03816767070443887 -0.012157452719403281 -0.02054587893777471 -0.007374792802983297 -0.026040328465312554 0.02306813940365676 -0.007150258506798315 -5.645370492171943 -0.009243603151341314 0.019282093794661795 -6.728755464532847 0.04248140516904464 0.013053712614814663 -6.740383308079578 -0.04925524062158003 0.0024721746086021714 -0.0060927833480457615 0.01100641493633475 0.030439097341101767 8.075557430578934 3.4787104173437657 -19.212441847314444 -0.04463580261238274 10.383677437248268 0.0030173974856397626 -5.651801693329563 -15.617287468772869 3.2153681901176476 -0.043306220085274044 -0.03359217869935719 0.02616245726547465 0.03715652031278222 4.6628367859786435 -0.012334795356399671 12.48558318763242 -8.229227215018307 6.918632529016501 0.016052889721137633 46.42927729830673 -0.02551081261139762 -4.332780934798474 -14.702138453585087 -3.827591926166737 -0.012376591496845852 -0.03059306325546657 -0.039366006521689416 -0.00966507865210464 -10.707165183743054 -0.00844951612520601 
0.01803723901338176 0.04251076136704052 -0.010525310774867458 0.04605480973834747 0.010156470912761837 -0.035814658606384796 -4.230114544475872 2.3635811527670185 -0.6005050944619145 -0.9155820554669242 3.52132981947905 0.4156428153791037 -1.2537270883195706 -1.5116256931105487 -1.0234037246178216 -0.14629752109440747 0.2957497879644382 -0.8923669046061441 0.11169547633485047 10.8520081874773 -0.8438859844896068 -0.043759052038395876 -1.2759595406193265 -4.5174429871563895 0.3684541716945424 -16.759167207708757 -0.3236343957361552 -2.138198680526539 1.2431706316569913 -12.920657716077622 72.10460439531435 9.28113353653046 10.963601507407448 39.089533495302234 6.064405066192654 96.0768190526538 18.921488911212222 -0.3146712437075737 -4.131282822258722 4.538945390809125 -0.16980663192790185 -1.6123471881862899 0.03027017008253119 0.029105441247767278 -56.27139358591905 -0.005345221524258008 0.004785299887170097 -56.19114003507097 -38.748426957547736 -0.030336271907037866 -0.017659150617292972 0.04624991202946509 -0.01945648943298067 0.01046747171877967 0.046432773197565266 -0.010447728247405611 0.04019376765411788 -36.7065793459693 -0.02074976357702514 0.018567633875465797 0.02162109885092305 0.020465239727929442 0.025948168771142543 0.007443996131526745 0.028382500385595002 0.0033215719675110805 -19.709105987534496 -0.019054019145797477 0.021606658987696016 0.03872042094888912 -0.018758893274260526 0.03582405051761366 -0.0025875576850651343 -0.04747630750512134 -0.012150940307379428 24.071858261389497 -0.03353567919972078 0.025375249664702452 28.844892915943518 -0.025335035114680285 0.003499913470337941 28.89986312047352 0.03161111533629393 -0.04757632437979725 3.00772811272194 1.0125087678607438 11.40972761747404 -69.12666566483915 25.431787516641165 -8.508005678669692 -20.744142460911277 4.453494077724572 -73.19367866865124 -13.44866324214133 0.23581366534520273 1.7045884966366387 -0.517146881901685 0.06749496804813948 -8.096933456503665 -0.03895667435167071 -0.03514772812001198 44.59008219649553 0.00077597716670262 0.0380610486137711 44.560846817405256 12.428092536126453 0.016287861639375262 -0.020305582945742924 0.019640248581001087 -0.015303021841916701 -0.025200022420805206 0.02091105921041186 0.016962000615238008 -0.0382887786240473 11.093901442649928 0.004311245435964575 -0.03627990983387702 -0.028088078829333788 0.020259902137463356 -0.0038986024922854617 0.048216848573330855 0.04048668602548037 -0.00029491699939291233 4.733971767741609 -0.010604059337516042 0.040429131158498936 -0.011990755702997078 0.02724345696607516 0.02016612378079999 -0.0418149987809593 -0.03809559169238915 -0.044094178779437235 -5.626187869003048 0.03610501483741974 0.010399151716243645 -6.7540657396301205 -0.03767336202456707 0.04213576295774043 -6.69562644036708 0.04002037409008126 -0.04142873478303376 0.02485085207649825 -0.015727663177523138 -0.027967274775430557 8.034552843223498 3.5061898675577354 -19.191418175226346 0.044326287298125516 10.38387986163651 0.0373466085555626 -5.592467816796497 -15.633218751891178 3.157470010021041 -0.023934053974454014 0.03750910880509992 0.04849095203361946 0.023436116308902792 4.718289243810353 -0.03481175290279452 12.504907101580192 -8.245812853152094 6.854205367077879 -0.011382683948992181 46.40448635772023 0.013213327501953448 -4.345991396826931 -14.763579480123102 -3.837216830070127 0.04049368744192321 -0.013354060543726504 0.021152158030677767 -0.04093769184445405 -10.735122771469905 -0.0406551932387164 
